<svg xmlns="http://www.w3.org/2000/svg" xmlns:xlink="http://www.w3.org/1999/xlink" width="500" zoomAndPan="magnify" viewBox="0 0 375 127.500001" height="170" preserveAspectRatio="xMidYMid meet" version="1.0"><defs><g/><clipPath id="id1"><path d="M 0.730469 0 L 374.265625 0 L 374.265625 127.003906 L 0.730469 127.003906 Z M 0.730469 0 " clip-rule="nonzero"/></clipPath><clipPath id="id2"><path d="M 159.359375 39.964844 L 190.734375 39.964844 L 190.734375 52.664062 L 159.359375 52.664062 Z M 159.359375 39.964844 " clip-rule="nonzero"/></clipPath><clipPath id="id3"><path d="M 159.359375 67.367188 L 190.734375 67.367188 L 190.734375 80.066406 L 159.359375 80.066406 Z M 159.359375 67.367188 " clip-rule="nonzero"/></clipPath><clipPath id="id4"><path d="M 159.359375 12.699219 L 190.734375 12.699219 L 190.734375 25.402344 L 159.359375 25.402344 Z M 159.359375 12.699219 " clip-rule="nonzero"/></clipPath></defs><g clip-path="url(#id1)"><path fill="#ffffff" d="M 0.730469 0 L 374.265625 0 L 374.265625 134.472656 L 0.730469 134.472656 Z M 0.730469 0 " fill-opacity="1" fill-rule="nonzero"/><path fill="#ffffff" d="M 0.730469 0 L 374.265625 0 L 374.265625 127.003906 L 0.730469 127.003906 Z M 0.730469 0 " fill-opacity="1" fill-rule="nonzero"/><path fill="#ffffff" d="M 0.730469 0 L 374.265625 0 L 374.265625 127.003906 L 0.730469 127.003906 Z M 0.730469 0 " fill-opacity="1" fill-rule="nonzero"/><path fill="#ffffff" d="M 0.730469 0 L 374.265625 0 L 374.265625 127.003906 L 0.730469 127.003906 Z M 0.730469 0 " fill-opacity="1" fill-rule="nonzero"/></g><g fill="#ffffff" fill-opacity="1"><g transform="translate(2.084051, 79.287896)"><g><path d="M 25.46875 0 C 25.34375 -0.4375 25.21875 -0.84375 25.09375 -1.21875 C 24.96875 -1.601562 24.851562 -2.078125 24.75 -2.640625 C 24.65625 -3.203125 24.59375 -3.921875 24.5625 -4.796875 C 24.53125 -5.679688 24.515625 -6.785156 24.515625 -8.109375 L 24.515625 -18.484375 C 24.515625 -21.566406 23.976562 -23.734375 22.90625 -24.984375 C 21.84375 -26.242188 20.117188 -26.875 17.734375 -26.875 L 14.140625 -26.875 L 14.140625 0 L 3.765625 0 L 3.765625 -66.015625 L 19.421875 -66.015625 C 24.835938 -66.015625 28.753906 -64.753906 31.171875 -62.234375 C 33.585938 -59.722656 34.796875 -55.921875 34.796875 -50.828125 L 34.796875 -45.640625 C 34.796875 -38.859375 32.535156 -34.394531 28.015625 -32.25 C 30.648438 -31.1875 32.453125 -29.441406 33.421875 -27.015625 C 34.398438 -24.597656 34.890625 -21.660156 34.890625 -18.203125 L 34.890625 -8.015625 C 34.890625 -6.378906 34.953125 -4.945312 35.078125 -3.71875 C 35.203125 -2.5 35.519531 -1.257812 36.03125 0 Z M 14.140625 -56.59375 L 14.140625 -36.3125 L 18.203125 -36.3125 C 20.148438 -36.3125 21.671875 -36.8125 22.765625 -37.8125 C 23.867188 -38.820312 24.421875 -40.648438 24.421875 -43.296875 L 24.421875 -49.796875 C 24.421875 -52.179688 23.992188 -53.910156 23.140625 -54.984375 C 22.296875 -56.054688 20.960938 -56.59375 19.140625 -56.59375 Z M 14.140625 -56.59375 "/></g></g></g><g fill="#ffffff" fill-opacity="1"><g transform="translate(39.999749, 79.287896)"><g><path d="M 13.296875 -15.1875 C 13.296875 -12.789062 13.78125 -11.101562 14.75 -10.125 C 15.726562 -9.15625 17.035156 -8.671875 18.671875 -8.671875 C 20.304688 -8.671875 21.609375 -9.15625 22.578125 -10.125 C 23.554688 -11.101562 24.046875 -12.789062 24.046875 -15.1875 L 24.046875 -50.828125 C 24.046875 -53.222656 23.554688 -54.90625 22.578125 -55.875 C 21.609375 -56.851562 20.304688 -57.34375 18.671875 -57.34375 C 17.035156 -57.34375 15.726562 -56.851562 14.75 -55.875 C 13.78125 -54.90625 13.296875 -53.222656 13.296875 -50.828125 Z M 2.921875 -50.171875 C 2.921875 -55.515625 4.269531 -59.613281 6.96875 -62.46875 C 9.675781 -65.332031 13.578125 -66.765625 18.671875 -66.765625 C 23.765625 -66.765625 27.660156 -65.332031 30.359375 -62.46875 C 33.066406 -59.613281 34.421875 -55.515625 34.421875 -50.171875 L 34.421875 -15.84375 C 34.421875 -10.5 33.066406 -6.394531 30.359375 -3.53125 C 27.660156 -0.675781 23.765625 0.75 18.671875 0.75 C 13.578125 0.75 9.675781 -0.675781 6.96875 -3.53125 C 4.269531 -6.394531 2.921875 -10.5 2.921875 -15.84375 Z M 2.921875 -50.171875 "/></g></g></g><g fill="#ffffff" fill-opacity="1"><g transform="translate(77.349536, 79.287896)"><g><path d="M 33.859375 -24.609375 L 33.859375 -15.84375 C 33.859375 -10.5 32.550781 -6.394531 29.9375 -3.53125 C 27.332031 -0.675781 23.484375 0.75 18.390625 0.75 C 13.296875 0.75 9.441406 -0.675781 6.828125 -3.53125 C 4.222656 -6.394531 2.921875 -10.5 2.921875 -15.84375 L 2.921875 -50.171875 C 2.921875 -55.515625 4.222656 -59.613281 6.828125 -62.46875 C 9.441406 -65.332031 13.296875 -66.765625 18.390625 -66.765625 C 23.484375 -66.765625 27.332031 -65.332031 29.9375 -62.46875 C 32.550781 -59.613281 33.859375 -55.515625 33.859375 -50.171875 L 33.859375 -43.765625 L 24.046875 -43.765625 L 24.046875 -50.828125 C 24.046875 -53.222656 23.554688 -54.90625 22.578125 -55.875 C 21.609375 -56.851562 20.304688 -57.34375 18.671875 -57.34375 C 17.035156 -57.34375 15.726562 -56.851562 14.75 -55.875 C 13.78125 -54.90625 13.296875 -53.222656 13.296875 -50.828125 L 13.296875 -15.1875 C 13.296875 -12.789062 13.78125 -11.117188 14.75 -10.171875 C 15.726562 -9.234375 17.035156 -8.765625 18.671875 -8.765625 C 20.304688 -8.765625 21.609375 -9.234375 22.578125 -10.171875 C 23.554688 -11.117188 24.046875 -12.789062 24.046875 -15.1875 L 24.046875 -24.609375 Z M 33.859375 -24.609375 "/></g></g></g><g fill="#ffffff" fill-opacity="1"><g transform="translate(113.756148, 79.287896)"><g><path d="M 17.359375 -26.3125 L 14.140625 -20.28125 L 14.140625 0 L 3.765625 0 L 3.765625 -66.015625 L 14.140625 -66.015625 L 14.140625 -37.25 L 27.921875 -66.015625 L 38.109375 -66.015625 L 23.671875 -36.59375 L 38.109375 0 L 27.4375 0 Z M 17.359375 -26.3125 "/></g></g></g><g fill="#ffffff" fill-opacity="1"><g transform="translate(152.793812, 79.287896)"><g/></g></g><g fill="#ffffff" fill-opacity="1"><g transform="translate(167.413048, 79.287896)"><g/></g></g><g fill="#ffffff" fill-opacity="1"><g transform="translate(182.032284, 79.287896)"><g/></g></g><g fill="#ffffff" fill-opacity="1"><g transform="translate(196.649169, 79.287896)"><g><path d="M 0.9375 -66.015625 L 33.015625 -66.015625 L 33.015625 -56.59375 L 22.15625 -56.59375 L 22.15625 0 L 11.78125 0 L 11.78125 -56.59375 L 0.9375 -56.59375 Z M 0.9375 -66.015625 "/></g></g></g><g clip-path="url(#id2)"><path fill="#006600" d="M 159.363281 39.964844 L 190.730469 39.964844 L 190.730469 52.664062 L 159.363281 52.664062 L 159.363281 39.964844 " fill-opacity="1" fill-rule="nonzero"/></g><g clip-path="url(#id3)"><path fill="#ffff00" d="M 159.363281 67.367188 L 190.730469 67.367188 L 190.730469 80.066406 L 159.363281 80.066406 L 159.363281 67.367188 " fill-opacity="1" fill-rule="nonzero"/></g><g clip-path="url(#id4)"><path fill="#ff0000" d="M 159.363281 12.699219 L 190.730469 12.699219 L 190.730469 25.402344 L 159.363281 25.402344 L 159.363281 12.699219 " fill-opacity="1" fill-rule="nonzero"/></g><g fill="#ffffff" fill-opacity="1"><g transform="translate(234.742339, 79.476032)"><g><path d="M 0.9375 -9.421875 C 1.507812 -9.359375 2.109375 -9.328125 2.734375 -9.328125 C 3.359375 -9.328125 3.957031 -9.328125 4.53125 -9.328125 C 6.15625 -9.328125 7.550781 -9.734375 8.71875 -10.546875 C 9.882812 -11.367188 10.46875 -13.066406 10.46875 -15.640625 L 10.46875 -65.96875 L 20.828125 -65.96875 L 20.828125 -16.40625 C 20.828125 -13.070312 20.414062 -10.335938 19.59375 -8.203125 C 18.78125 -6.066406 17.679688 -4.382812 16.296875 -3.15625 C 14.921875 -1.925781 13.335938 -1.0625 11.546875 -0.5625 C 9.753906 -0.0625 7.882812 0.1875 5.9375 0.1875 C 5 0.1875 4.148438 0.1875 3.390625 0.1875 C 2.640625 0.1875 1.820312 0.125 0.9375 0 Z M 0.9375 -9.421875 "/></g></g></g><g fill="#ffffff" fill-opacity="1"><g transform="translate(258.869736, 79.476032)"><g><path d="M 13.296875 -15.171875 C 13.296875 -12.785156 13.78125 -11.101562 14.75 -10.125 C 15.726562 -9.15625 17.03125 -8.671875 18.65625 -8.671875 C 20.289062 -8.671875 21.59375 -9.15625 22.5625 -10.125 C 23.539062 -11.101562 24.03125 -12.785156 24.03125 -15.171875 L 24.03125 -50.796875 C 24.03125 -53.179688 23.539062 -54.859375 22.5625 -55.828125 C 21.59375 -56.804688 20.289062 -57.296875 18.65625 -57.296875 C 17.03125 -57.296875 15.726562 -56.804688 14.75 -55.828125 C 13.78125 -54.859375 13.296875 -53.179688 13.296875 -50.796875 Z M 2.921875 -50.140625 C 2.921875 -55.484375 4.269531 -59.582031 6.96875 -62.4375 C 9.675781 -65.300781 13.570312 -66.734375 18.65625 -66.734375 C 23.75 -66.734375 27.644531 -65.300781 30.34375 -62.4375 C 33.050781 -59.582031 34.40625 -55.484375 34.40625 -50.140625 L 34.40625 -15.828125 C 34.40625 -10.492188 33.050781 -6.394531 30.34375 -3.53125 C 27.644531 -0.675781 23.75 0.75 18.65625 0.75 C 13.570312 0.75 9.675781 -0.675781 6.96875 -3.53125 C 4.269531 -6.394531 2.921875 -10.492188 2.921875 -15.828125 Z M 2.921875 -50.140625 "/></g></g></g><g fill="#ffffff" fill-opacity="1"><g transform="translate(296.1918, 79.476032)"><g><path d="M 19.421875 -65.96875 C 24.816406 -65.96875 28.722656 -64.710938 31.140625 -62.203125 C 33.566406 -59.691406 34.78125 -55.890625 34.78125 -50.796875 L 34.78125 -48.4375 C 34.78125 -45.050781 34.242188 -42.253906 33.171875 -40.046875 C 32.109375 -37.847656 30.414062 -36.21875 28.09375 -35.15625 C 30.914062 -34.082031 32.90625 -32.335938 34.0625 -29.921875 C 35.226562 -27.503906 35.8125 -24.535156 35.8125 -21.015625 L 35.8125 -15.640625 C 35.8125 -10.554688 34.488281 -6.675781 31.84375 -4 C 29.207031 -1.332031 25.285156 0 20.078125 0 L 3.765625 0 L 3.765625 -65.96875 Z M 14.140625 -29.6875 L 14.140625 -9.421875 L 20.078125 -9.421875 C 21.835938 -9.421875 23.171875 -9.890625 24.078125 -10.828125 C 24.992188 -11.773438 25.453125 -13.472656 25.453125 -15.921875 L 25.453125 -21.671875 C 25.453125 -24.753906 24.929688 -26.859375 23.890625 -27.984375 C 22.859375 -29.117188 21.144531 -29.6875 18.75 -29.6875 Z M 14.140625 -56.546875 L 14.140625 -39.109375 L 18.1875 -39.109375 C 20.132812 -39.109375 21.65625 -39.609375 22.75 -40.609375 C 23.851562 -41.617188 24.40625 -43.445312 24.40625 -46.09375 L 24.40625 -49.765625 C 24.40625 -52.148438 23.976562 -53.875 23.125 -54.9375 C 22.28125 -56.007812 20.945312 -56.546875 19.125 -56.546875 Z M 14.140625 -56.546875 "/></g></g></g><g fill="#ffffff" fill-opacity="1"><g transform="translate(334.456342, 79.476032)"><g><path d="M 2.453125 -50.140625 C 2.453125 -55.484375 3.722656 -59.582031 6.265625 -62.4375 C 8.804688 -65.300781 12.625 -66.734375 17.71875 -66.734375 C 22.8125 -66.734375 26.628906 -65.300781 29.171875 -62.4375 C 31.710938 -59.582031 32.984375 -55.484375 32.984375 -50.140625 L 32.984375 -47.59375 L 23.1875 -47.59375 L 23.1875 -50.796875 C 23.1875 -53.179688 22.726562 -54.859375 21.8125 -55.828125 C 20.90625 -56.804688 19.632812 -57.296875 18 -57.296875 C 16.363281 -57.296875 15.085938 -56.804688 14.171875 -55.828125 C 13.265625 -54.859375 12.8125 -53.179688 12.8125 -50.796875 C 12.8125 -48.535156 13.3125 -46.539062 14.3125 -44.8125 C 15.320312 -43.082031 16.582031 -41.445312 18.09375 -39.90625 C 19.601562 -38.375 21.222656 -36.835938 22.953125 -35.296875 C 24.679688 -33.753906 26.296875 -32.070312 27.796875 -30.25 C 29.304688 -28.425781 30.5625 -26.351562 31.5625 -24.03125 C 32.570312 -21.707031 33.078125 -18.972656 33.078125 -15.828125 C 33.078125 -10.492188 31.773438 -6.394531 29.171875 -3.53125 C 26.566406 -0.675781 22.71875 0.75 17.625 0.75 C 12.53125 0.75 8.679688 -0.675781 6.078125 -3.53125 C 3.472656 -6.394531 2.171875 -10.492188 2.171875 -15.828125 L 2.171875 -20.359375 L 11.96875 -20.359375 L 11.96875 -15.171875 C 11.96875 -12.785156 12.453125 -11.117188 13.421875 -10.171875 C 14.398438 -9.234375 15.707031 -8.765625 17.34375 -8.765625 C 18.976562 -8.765625 20.28125 -9.234375 21.25 -10.171875 C 22.226562 -11.117188 22.71875 -12.785156 22.71875 -15.171875 C 22.71875 -17.429688 22.210938 -19.425781 21.203125 -21.15625 C 20.203125 -22.882812 18.945312 -24.519531 17.4375 -26.0625 C 15.925781 -27.601562 14.304688 -29.140625 12.578125 -30.671875 C 10.847656 -32.210938 9.226562 -33.894531 7.71875 -35.71875 C 6.21875 -37.539062 4.960938 -39.613281 3.953125 -41.9375 C 2.953125 -44.257812 2.453125 -46.992188 2.453125 -50.140625 Z M 2.453125 -50.140625 "/></g></g></g><g fill="#ffffff" fill-opacity="1"><g transform="translate(3.041235, 116.930849)"><g><path d="M 10.75 -14.40625 L 10.75 -11.671875 L 4.546875 -11.671875 L 4.546875 0 L 1.546875 0 L 1.546875 -26.96875 L 12.25 -26.96875 L 12.25 -24.234375 L 4.546875 -24.234375 L 4.546875 -14.40625 Z M 10.75 -14.40625 "/></g></g></g><g fill="#ffffff" fill-opacity="1"><g transform="translate(16.142255, 116.930849)"><g><path d="M 7.546875 -26.96875 C 9.679688 -26.96875 11.21875 -26.441406 12.15625 -25.390625 C 13.09375 -24.335938 13.5625 -22.8125 13.5625 -20.8125 L 13.5625 -18.609375 C 13.5625 -17.117188 13.289062 -15.910156 12.75 -14.984375 C 12.207031 -14.054688 11.359375 -13.414062 10.203125 -13.0625 C 11.441406 -12.695312 12.316406 -12.035156 12.828125 -11.078125 C 13.335938 -10.117188 13.59375 -8.90625 13.59375 -7.4375 L 13.59375 -3.234375 C 13.59375 -2.640625 13.617188 -2.066406 13.671875 -1.515625 C 13.722656 -0.960938 13.878906 -0.457031 14.140625 0 L 11.09375 0 C 10.914062 -0.382812 10.785156 -0.800781 10.703125 -1.25 C 10.628906 -1.695312 10.59375 -2.375 10.59375 -3.28125 L 10.59375 -7.515625 C 10.59375 -9.023438 10.25 -10.066406 9.5625 -10.640625 C 8.882812 -11.222656 7.921875 -11.515625 6.671875 -11.515625 L 4.546875 -11.515625 L 4.546875 0 L 1.546875 0 L 1.546875 -26.96875 Z M 6.78125 -14.25 C 7.988281 -14.25 8.925781 -14.5 9.59375 -15 C 10.257812 -15.507812 10.59375 -16.492188 10.59375 -17.953125 L 10.59375 -20.53125 C 10.59375 -21.769531 10.351562 -22.695312 9.875 -23.3125 C 9.40625 -23.925781 8.601562 -24.234375 7.46875 -24.234375 L 4.546875 -24.234375 L 4.546875 -14.25 Z M 6.78125 -14.25 "/></g></g></g><g fill="#ffffff" fill-opacity="1"><g transform="translate(31.324029, 116.930849)"><g><path d="M 11.140625 -15.03125 L 11.140625 -12.328125 L 4.546875 -12.328125 L 4.546875 -2.734375 L 12.640625 -2.734375 L 12.640625 0 L 1.546875 0 L 1.546875 -26.96875 L 12.640625 -26.96875 L 12.640625 -24.234375 L 4.546875 -24.234375 L 4.546875 -15.03125 Z M 11.140625 -15.03125 "/></g></g></g><g fill="#ffffff" fill-opacity="1"><g transform="translate(45.195704, 116.930849)"><g><path d="M 11.140625 -15.03125 L 11.140625 -12.328125 L 4.546875 -12.328125 L 4.546875 -2.734375 L 12.640625 -2.734375 L 12.640625 0 L 1.546875 0 L 1.546875 -26.96875 L 12.640625 -26.96875 L 12.640625 -24.234375 L 4.546875 -24.234375 L 4.546875 -15.03125 Z M 11.140625 -15.03125 "/></g></g></g><g fill="#ffffff" fill-opacity="1"><g transform="translate(59.06738, 116.930849)"><g><path d="M 1.546875 0 L 1.546875 -26.96875 L 4.546875 -26.96875 L 4.546875 -2.734375 L 12.25 -2.734375 L 12.25 0 Z M 1.546875 0 "/></g></g></g><g fill="#ffffff" fill-opacity="1"><g transform="translate(72.05281, 116.930849)"><g><path d="M 4.578125 -5.4375 L 3.546875 0 L 0.765625 0 L 5.9375 -26.96875 L 10.28125 -26.96875 L 15.453125 0 L 12.453125 0 L 11.40625 -5.4375 Z M 4.96875 -8.015625 L 10.984375 -8.015625 L 7.9375 -23.578125 Z M 4.96875 -8.015625 "/></g></g></g><g fill="#ffffff" fill-opacity="1"><g transform="translate(88.31349, 116.930849)"><g><path d="M 7.203125 -27.234375 C 9.253906 -27.234375 10.769531 -26.625 11.75 -25.40625 C 12.726562 -24.1875 13.21875 -22.550781 13.21875 -20.5 L 13.21875 -19.765625 L 10.359375 -19.765625 L 10.359375 -20.65625 C 10.359375 -21.882812 10.113281 -22.832031 9.625 -23.5 C 9.144531 -24.164062 8.363281 -24.5 7.28125 -24.5 C 6.207031 -24.5 5.425781 -24.164062 4.9375 -23.5 C 4.445312 -22.832031 4.203125 -21.894531 4.203125 -20.6875 C 4.203125 -19.6875 4.425781 -18.8125 4.875 -18.0625 C 5.320312 -17.320312 5.878906 -16.632812 6.546875 -16 C 7.210938 -15.375 7.9375 -14.757812 8.71875 -14.15625 C 9.507812 -13.550781 10.238281 -12.890625 10.90625 -12.171875 C 11.570312 -11.453125 12.128906 -10.632812 12.578125 -9.71875 C 13.023438 -8.8125 13.25 -7.726562 13.25 -6.46875 C 13.25 -4.414062 12.753906 -2.78125 11.765625 -1.5625 C 10.773438 -0.34375 9.242188 0.265625 7.171875 0.265625 C 5.085938 0.265625 3.554688 -0.34375 2.578125 -1.5625 C 1.609375 -2.78125 1.125 -4.414062 1.125 -6.46875 L 1.125 -8.015625 L 3.9375 -8.015625 L 3.9375 -6.3125 C 3.9375 -5.082031 4.191406 -4.132812 4.703125 -3.46875 C 5.210938 -2.800781 6.007812 -2.46875 7.09375 -2.46875 C 8.164062 -2.46875 8.957031 -2.800781 9.46875 -3.46875 C 9.988281 -4.132812 10.25 -5.082031 10.25 -6.3125 C 10.25 -7.320312 10.023438 -8.191406 9.578125 -8.921875 C 9.128906 -9.648438 8.566406 -10.328125 7.890625 -10.953125 C 7.222656 -11.585938 6.503906 -12.207031 5.734375 -12.8125 C 4.960938 -13.414062 4.242188 -14.078125 3.578125 -14.796875 C 2.910156 -15.515625 2.351562 -16.328125 1.90625 -17.234375 C 1.457031 -18.148438 1.234375 -19.238281 1.234375 -20.5 C 1.234375 -22.582031 1.71875 -24.222656 2.6875 -25.421875 C 3.664062 -26.628906 5.171875 -27.234375 7.203125 -27.234375 Z M 7.203125 -27.234375 "/></g></g></g><g fill="#ffffff" fill-opacity="1"><g transform="translate(102.647548, 116.930849)"><g/></g></g><g fill="#ffffff" fill-opacity="1"><g transform="translate(108.620075, 116.930849)"><g><path d="M 10.75 -14.40625 L 10.75 -11.671875 L 4.546875 -11.671875 L 4.546875 0 L 1.546875 0 L 1.546875 -26.96875 L 12.25 -26.96875 L 12.25 -24.234375 L 4.546875 -24.234375 L 4.546875 -14.40625 Z M 10.75 -14.40625 "/></g></g></g><g fill="#ffffff" fill-opacity="1"><g transform="translate(121.721095, 116.930849)"><g><path d="M 1.3125 -20.453125 C 1.3125 -22.535156 1.816406 -24.1875 2.828125 -25.40625 C 3.847656 -26.625 5.394531 -27.234375 7.46875 -27.234375 C 9.550781 -27.234375 11.101562 -26.625 12.125 -25.40625 C 13.15625 -24.1875 13.671875 -22.535156 13.671875 -20.453125 L 13.671875 -6.515625 C 13.671875 -4.453125 13.15625 -2.804688 12.125 -1.578125 C 11.101562 -0.347656 9.550781 0.265625 7.46875 0.265625 C 5.394531 0.265625 3.847656 -0.347656 2.828125 -1.578125 C 1.816406 -2.804688 1.3125 -4.453125 1.3125 -6.515625 Z M 4.28125 -6.359375 C 4.28125 -5.128906 4.539062 -4.171875 5.0625 -3.484375 C 5.59375 -2.804688 6.394531 -2.46875 7.46875 -2.46875 C 8.570312 -2.46875 9.378906 -2.804688 9.890625 -3.484375 C 10.410156 -4.171875 10.671875 -5.128906 10.671875 -6.359375 L 10.671875 -20.609375 C 10.671875 -21.847656 10.410156 -22.804688 9.890625 -23.484375 C 9.378906 -24.160156 8.570312 -24.5 7.46875 -24.5 C 6.394531 -24.5 5.59375 -24.160156 5.0625 -23.484375 C 4.539062 -22.804688 4.28125 -21.847656 4.28125 -20.609375 Z M 4.28125 -6.359375 "/></g></g></g><g fill="#ffffff" fill-opacity="1"><g transform="translate(136.710207, 116.930849)"><g><path d="M 7.546875 -26.96875 C 9.679688 -26.96875 11.21875 -26.441406 12.15625 -25.390625 C 13.09375 -24.335938 13.5625 -22.8125 13.5625 -20.8125 L 13.5625 -18.609375 C 13.5625 -17.117188 13.289062 -15.910156 12.75 -14.984375 C 12.207031 -14.054688 11.359375 -13.414062 10.203125 -13.0625 C 11.441406 -12.695312 12.316406 -12.035156 12.828125 -11.078125 C 13.335938 -10.117188 13.59375 -8.90625 13.59375 -7.4375 L 13.59375 -3.234375 C 13.59375 -2.640625 13.617188 -2.066406 13.671875 -1.515625 C 13.722656 -0.960938 13.878906 -0.457031 14.140625 0 L 11.09375 0 C 10.914062 -0.382812 10.785156 -0.800781 10.703125 -1.25 C 10.628906 -1.695312 10.59375 -2.375 10.59375 -3.28125 L 10.59375 -7.515625 C 10.59375 -9.023438 10.25 -10.066406 9.5625 -10.640625 C 8.882812 -11.222656 7.921875 -11.515625 6.671875 -11.515625 L 4.546875 -11.515625 L 4.546875 0 L 1.546875 0 L 1.546875 -26.96875 Z M 6.78125 -14.25 C 7.988281 -14.25 8.925781 -14.5 9.59375 -15 C 10.257812 -15.507812 10.59375 -16.492188 10.59375 -17.953125 L 10.59375 -20.53125 C 10.59375 -21.769531 10.351562 -22.695312 9.875 -23.3125 C 9.40625 -23.925781 8.601562 -24.234375 7.46875 -24.234375 L 4.546875 -24.234375 L 4.546875 -14.25 Z M 6.78125 -14.25 "/></g></g></g><g fill="#ffffff" fill-opacity="1"><g transform="translate(151.891981, 116.930849)"><g/></g></g><g fill="#ffffff" fill-opacity="1"><g transform="translate(157.864508, 116.930849)"><g><path d="M 6.3125 -9.671875 L 0.609375 -26.96875 L 3.734375 -26.96875 L 7.9375 -13.71875 L 12.171875 -26.96875 L 15.03125 -26.96875 L 9.28125 -9.671875 L 9.28125 0 L 6.3125 0 Z M 6.3125 -9.671875 "/></g></g></g><g fill="#ffffff" fill-opacity="1"><g transform="translate(173.508674, 116.930849)"><g><path d="M 1.3125 -20.453125 C 1.3125 -22.535156 1.816406 -24.1875 2.828125 -25.40625 C 3.847656 -26.625 5.394531 -27.234375 7.46875 -27.234375 C 9.550781 -27.234375 11.101562 -26.625 12.125 -25.40625 C 13.15625 -24.1875 13.671875 -22.535156 13.671875 -20.453125 L 13.671875 -6.515625 C 13.671875 -4.453125 13.15625 -2.804688 12.125 -1.578125 C 11.101562 -0.347656 9.550781 0.265625 7.46875 0.265625 C 5.394531 0.265625 3.847656 -0.347656 2.828125 -1.578125 C 1.816406 -2.804688 1.3125 -4.453125 1.3125 -6.515625 Z M 4.28125 -6.359375 C 4.28125 -5.128906 4.539062 -4.171875 5.0625 -3.484375 C 5.59375 -2.804688 6.394531 -2.46875 7.46875 -2.46875 C 8.570312 -2.46875 9.378906 -2.804688 9.890625 -3.484375 C 10.410156 -4.171875 10.671875 -5.128906 10.671875 -6.359375 L 10.671875 -20.609375 C 10.671875 -21.847656 10.410156 -22.804688 9.890625 -23.484375 C 9.378906 -24.160156 8.570312 -24.5 7.46875 -24.5 C 6.394531 -24.5 5.59375 -24.160156 5.0625 -23.484375 C 4.539062 -22.804688 4.28125 -21.847656 4.28125 -20.609375 Z M 4.28125 -6.359375 "/></g></g></g><g fill="#ffffff" fill-opacity="1"><g transform="translate(188.497786, 116.930849)"><g><path d="M 4.390625 -6.359375 C 4.390625 -5.128906 4.640625 -4.171875 5.140625 -3.484375 C 5.640625 -2.804688 6.441406 -2.46875 7.546875 -2.46875 C 8.628906 -2.46875 9.421875 -2.804688 9.921875 -3.484375 C 10.421875 -4.171875 10.671875 -5.128906 10.671875 -6.359375 L 10.671875 -26.96875 L 13.484375 -26.96875 L 13.484375 -6.515625 C 13.484375 -4.453125 12.992188 -2.796875 12.015625 -1.546875 C 11.046875 -0.304688 9.519531 0.3125 7.4375 0.3125 C 5.382812 0.3125 3.867188 -0.304688 2.890625 -1.546875 C 1.910156 -2.796875 1.421875 -4.453125 1.421875 -6.515625 L 1.421875 -26.96875 L 4.390625 -26.96875 Z M 4.390625 -6.359375 "/></g></g></g></svg>